<?xml version="1.0" encoding="UTF-8"?>
<svg width="128" height="128" viewBox="0 0 128 128" xmlns="http://www.w3.org/2000/svg">
  <!-- Background circle with gradient -->
  <defs>
    <linearGradient id="bgGradient" x1="0%" y1="0%" x2="100%" y2="100%">
      <stop offset="0%" style="stop-color:#2563EB;stop-opacity:1" />
      <stop offset="100%" style="stop-color:#1E40AF;stop-opacity:1" />
    </linearGradient>
    <filter id="shadow">
      <feGaussianBlur in="SourceAlpha" stdDeviation="2"/>
      <feOffset dx="0" dy="2" result="offsetblur"/>
      <feComponentTransfer>
        <feFuncA type="linear" slope="0.3"/>
      </feComponentTransfer>
      <feMerge>
        <feMergeNode/>
        <feMergeNode in="SourceGraphic"/>
      </feMerge>
    </filter>
  </defs>
  
  <!-- Background -->
  <circle cx="64" cy="64" r="60" fill="url(#bgGradient)"/>
  
  <!-- Camera body (main rectangle with rounded corners) -->
  <g filter="url(#shadow)">
    <rect x="36" y="46" width="56" height="40" rx="6" fill="white"/>
    
    <!-- Camera lens circle -->
    <circle cx="64" cy="66" r="14" fill="#2563EB"/>
    <circle cx="64" cy="66" r="10" fill="#1E40AF"/>
    <circle cx="64" cy="66" r="6" fill="white"/>
    
    <!-- Camera indicator light -->
    <rect x="82" y="50" width="6" height="6" rx="1.5" fill="#EF4444"/>
    
    <!-- Camera brand text area -->
    <rect x="40" y="50" width="20" height="4" rx="1" fill="#E5E7EB"/>
  </g>
  
  <!-- Network connection lines (top) -->
  <g opacity="0.9">
    <path d="M 28 28 Q 64 44 100 28" stroke="white" stroke-width="3" fill="none" stroke-linecap="round" stroke-linejoin="round"/>
    <circle cx="28" cy="28" r="4" fill="white"/>
    <circle cx="100" cy="28" r="4" fill="white"/>
    
    <!-- Signal waves from left node -->
    <path d="M 22 28 Q 18 28 18 24" stroke="white" stroke-width="2" fill="none" stroke-linecap="round" opacity="0.6"/>
    <path d="M 16 28 Q 12 28 12 22" stroke="white" stroke-width="2" fill="none" stroke-linecap="round" opacity="0.4"/>
    
    <!-- Signal waves from right node -->
    <path d="M 106 28 Q 110 28 110 24" stroke="white" stroke-width="2" fill="none" stroke-linecap="round" opacity="0.6"/>
    <path d="M 112 28 Q 116 28 116 22" stroke="white" stroke-width="2" fill="none" stroke-linecap="round" opacity="0.4"/>
  </g>
  
  <!-- Network connection lines (bottom) -->
  <g opacity="0.9">
    <path d="M 28 100 Q 64 84 100 100" stroke="white" stroke-width="3" fill="none" stroke-linecap="round" stroke-linejoin="round"/>
    <circle cx="28" cy="100" r="4" fill="white"/>
    <circle cx="100" cy="100" r="4" fill="white"/>
  </g>
</svg>
